<?xml version="1.0" encoding="utf-8"?>
<!-- Svg Vector Icons : http://www.onlinewebfonts.com/icon -->
<!DOCTYPE svg PUBLIC "-//W3C//DTD SVG 1.1//EN" "http://www.w3.org/Graphics/SVG/1.1/DTD/svg11.dtd">
<svg version="1.1" xmlns="http://www.w3.org/2000/svg" xmlns:xlink="http://www.w3.org/1999/xlink" x="0px" y="0px" viewBox="0 0 256 256" enable-background="new 0 0 256 256" xml:space="preserve">
<metadata> Svg Vector Icons : http://www.onlinewebfonts.com/icon </metadata>
<g><g><path fill="#000000" d="M124.9,178.2l-40,40c-12.6,12.6-34.5,12.6-47.1,0c-13-13-13-34.1,0-47.1l49.9-49.9c13-13,34.1-13,47.1,0c3.5,3.5,9.3,3.5,12.8,0c3.5-3.5,3.5-9.3,0-12.8c-20.1-20.1-52.7-20.1-72.8,0L25,158.2C5,178.2,5,210.9,25,230.9c9.7,9.7,22.6,15.1,36.4,15.1s26.7-5.3,36.4-15.1l40-40c3.5-3.5,3.5-9.3,0-12.8C134.2,174.6,128.4,174.6,124.9,178.2z"/><path fill="#000000" d="M230.9,25c-9.7-9.7-22.6-15.1-36.4-15.1c-13.8,0-26.7,5.3-36.4,15.1L118.2,65c-3.5,3.5-3.5,9.3,0,12.8s9.3,3.5,12.8,0L171,37.9c12.6-12.6,34.5-12.6,47.1,0c6.3,6.3,9.8,14.6,9.8,23.5s-3.5,17.2-9.8,23.5l-49.9,49.9c-13,13-34.1,13-47.1,0c-3.5-3.5-9.3-3.5-12.8,0c-3.5,3.5-3.5,9.3,0,12.8c10,10,23.2,15,36.4,15c13.2,0,26.3-5,36.4-15l49.9-49.9c9.7-9.7,15.1-22.6,15.1-36.4C246,47.7,240.6,34.8,230.9,25z"/></g></g>
</svg>